<svg width="57" height="56" viewBox="0 0 57 56" fill="none" xmlns="http://www.w3.org/2000/svg">
<path fill-rule="evenodd" clip-rule="evenodd" d="M16.8027 36.4312L18.9508 26.3967C19.2636 25.0022 19.968 23.7261 20.9813 22.7183L40.609 3.2672C42.5993 1.23962 45.3018 0.0678671 48.1422 0.000825604C50.2845 -0.0298696 52.3503 0.796448 53.8804 2.29611C57.2239 6.24656 56.7922 12.1459 52.9094 15.5676L33.2817 35.1953C32.2739 36.2085 30.9978 36.913 29.6033 37.2257L19.5688 39.3739H19.0097C18.2761 39.402 17.5755 39.0682 17.135 38.4809C16.6945 37.8936 16.5703 37.1276 16.8027 36.4312ZM24.1005 25.867C23.6882 26.2665 23.4018 26.778 23.2766 27.3383L21.8347 34.1948L28.6911 32.7234C29.2514 32.5982 29.7629 32.3118 30.1624 31.8995L49.7901 12.2718C51.9403 10.5504 52.367 7.44721 50.7612 5.20937C50.0581 4.53757 49.1142 4.17699 48.1422 4.20886C46.4666 4.27614 44.8831 4.99396 43.7282 6.20988L24.1005 25.867Z" fill="black"/>
<path d="M52.468 23.66C51.2557 23.6758 50.2768 24.6547 50.261 25.867V42.6108C50.3004 44.9775 49.3878 47.261 47.7279 48.9485C46.068 50.636 43.8 51.5863 41.4329 51.586H13.3892C8.4966 51.4901 4.5762 47.5043 4.56115 42.6108V14.6848C4.64148 9.7855 8.63637 5.8561 13.5363 5.85676H30.2802C31.4991 5.85676 32.4872 4.86864 32.4872 3.64975C32.4872 2.43085 31.4991 1.44274 30.2802 1.44274H13.3892C6.05162 1.4423 0.0806326 7.34767 0 14.6848V42.6108C0 50.0055 5.99454 56 13.3892 56H41.3152C48.6984 55.9838 54.675 49.994 54.675 42.6108V25.867C54.6591 24.6547 53.6802 23.6758 52.468 23.66Z" fill="black"/>
</svg>
