<svg width="22" height="18" viewBox="0 0 22 18" fill="none" xmlns="http://www.w3.org/2000/svg">
<path d="M11.0071 -0.00927734C8.95308 -0.00927734 6.99109 0.679726 5.41309 1.92873C4.98009 2.27073 4.91408 2.90172 5.25708 3.33472C5.60008 3.76772 6.23009 3.83372 6.66309 3.49072C7.89009 2.51972 9.40808 1.99072 11.0071 1.99072C14.8731 1.99072 18.0071 5.12472 18.0071 8.99072H16.0071L19.0071 12.9907L22.0071 8.99072H20.0071C20.0071 4.01972 15.9781 -0.00927734 11.0071 -0.00927734ZM3.00708 4.99072L0.00708008 8.99072H2.00708C2.00708 13.9617 6.03608 17.9907 11.0071 17.9907C13.0621 17.9907 15.0231 17.3027 16.6011 16.0527C17.0341 15.7107 17.1001 15.0797 16.7571 14.6467C16.4141 14.2137 15.7841 14.1477 15.3511 14.4907C14.1231 15.4627 12.6071 15.9907 11.0071 15.9907C7.14108 15.9907 4.00708 12.8567 4.00708 8.99072H6.00708L3.00708 4.99072Z" fill="#2A343D"/>
</svg>
