<svg width="42" height="56" viewBox="0 0 42 56" fill="none" xmlns="http://www.w3.org/2000/svg">
<path fill-rule="evenodd" clip-rule="evenodd" d="M21 0C13.8916 0 8.12903 5.80938 8.12903 12.9756C8.12903 20.1418 13.8916 25.9512 21 25.9512C28.1084 25.9512 33.871 20.1418 33.871 12.9756C33.871 5.80938 28.1084 0 21 0ZM12.1935 12.9756C12.1935 8.0724 16.1363 4.09756 21 4.09756C25.8637 4.09756 29.8065 8.0724 29.8065 12.9756C29.8065 17.8788 25.8637 21.8537 21 21.8537C16.1363 21.8537 12.1935 17.8788 12.1935 12.9756Z" fill="black"/>
<path fill-rule="evenodd" clip-rule="evenodd" d="M12.871 30.0488C5.76253 30.0488 0 35.8582 0 43.0244C0 50.1906 5.76253 56 12.871 56H29.129C36.2375 56 42 50.1906 42 43.0244C42 35.8582 36.2375 30.0488 29.129 30.0488H12.871ZM4.06452 43.0244C4.06452 38.1212 8.0073 34.1463 12.871 34.1463H29.129C33.9927 34.1463 37.9355 38.1212 37.9355 43.0244C37.9355 47.9276 33.9927 51.9024 29.129 51.9024H12.871C8.0073 51.9024 4.06452 47.9276 4.06452 43.0244Z" fill="black"/>
</svg>
