<svg width="45" height="56" viewBox="0 0 45 56" fill="none" xmlns="http://www.w3.org/2000/svg">
<path d="M42.3003 14.3003C41.0525 14.3003 40.0409 15.3119 40.0409 16.5598V41.8427C40.0409 47.1658 35.7256 51.4811 30.4025 51.4811H14.1573C8.83416 51.4811 4.5189 47.1658 4.5189 41.8427V16.5598C4.5189 15.3119 3.50731 14.3003 2.25945 14.3003C1.01159 14.3003 3.71891e-08 15.3119 0 16.5598V41.8427C0.0784233 49.6846 6.45798 56.0004 14.3003 56H30.5455C38.332 55.9225 44.6253 49.6292 44.7028 41.8427V16.5598C44.704 15.9349 44.4464 15.3374 43.9913 14.9093C43.5361 14.4812 42.9239 14.2608 42.3003 14.3003Z" fill="black"/>
<path fill-rule="evenodd" clip-rule="evenodd" d="M42.3003 10.239H2.25945C1.01159 10.239 0 9.22743 0 7.97957C0 6.73171 1.01159 5.72012 2.25945 5.72012H9.83861L13.2135 2.05924C14.5036 0.747651 16.2645 0.0062231 18.1042 5.24794e-10H26.4556C28.2685 -2.24415e-05 30.0071 0.720134 31.2891 2.00204L34.7211 5.72012H42.3003C43.5482 5.72012 44.5598 6.73171 44.5598 7.97957C44.5598 9.22743 43.5482 10.239 42.3003 10.239ZM26.4556 4.5189H18.1042C17.5324 4.5191 16.9814 4.73336 16.5598 5.11951L16.0163 5.69152H28.5434L28 5.11951C27.5814 4.72843 27.0284 4.51338 26.4556 4.5189Z" fill="black"/>
<path d="M11.5546 19.4198V28C11.5546 29.1847 12.515 30.145 13.6997 30.145C14.8844 30.145 15.8447 29.1847 15.8447 28V19.4198C15.8447 18.2351 14.8844 17.2748 13.6997 17.2748C12.515 17.2748 11.5546 18.2351 11.5546 19.4198Z" fill="black"/>
<path d="M20.1348 19.4198V42.3003C20.1348 43.485 21.0952 44.4454 22.2799 44.4454C23.4646 44.4454 24.4249 43.485 24.4249 42.3003V19.4198C24.4249 18.2351 23.4646 17.2748 22.2799 17.2748C21.0952 17.2748 20.1348 18.2351 20.1348 19.4198Z" fill="black"/>
<path d="M28.715 19.4198V28C28.715 29.1847 29.6754 30.145 30.8601 30.145C32.0447 30.145 33.0051 29.1847 33.0051 28V19.4198C33.0051 18.2351 32.0447 17.2748 30.8601 17.2748C29.6754 17.2748 28.715 18.2351 28.715 19.4198Z" fill="black"/>
</svg>
