<svg width="60" height="60" viewBox="0 0 60 60" fill="none" xmlns="http://www.w3.org/2000/svg">
<path fill-rule="evenodd" clip-rule="evenodd" d="M4 15.5294C4 9.16189 9.16189 4 15.5294 4C21.8969 4 27.0588 9.16189 27.0588 15.5294C27.0588 21.8969 21.8969 27.0588 15.5294 27.0588C9.16189 27.0588 4 21.8969 4 15.5294ZM22.1176 15.5294C22.1176 11.8908 19.168 8.94118 15.5294 8.94118C11.8908 8.94118 8.94118 11.8908 8.94118 15.5294C8.94118 19.168 11.8908 22.1176 15.5294 22.1176C19.168 22.1176 22.1176 19.168 22.1176 15.5294Z" fill="black"/>
<path fill-rule="evenodd" clip-rule="evenodd" d="M36.9412 15.5294C36.9412 9.16189 42.1031 4 48.4706 4C54.8381 4 60 9.16189 60 15.5294C60 21.8969 54.8381 27.0588 48.4706 27.0588C42.1031 27.0588 36.9412 21.8969 36.9412 15.5294ZM55.0588 15.5294C55.0588 11.8908 52.1092 8.94118 48.4706 8.94118C44.832 8.94118 41.8824 11.8908 41.8824 15.5294C41.8824 19.168 44.832 22.1176 48.4706 22.1176C52.1092 22.1176 55.0588 19.168 55.0588 15.5294Z" fill="black"/>
<path fill-rule="evenodd" clip-rule="evenodd" d="M4 48.4706C4 42.1031 9.16189 36.9412 15.5294 36.9412C21.8969 36.9412 27.0588 42.1031 27.0588 48.4706C27.0588 54.8381 21.8969 60 15.5294 60C9.16189 60 4 54.8381 4 48.4706ZM22.1176 48.4706C22.1176 44.832 19.168 41.8824 15.5294 41.8824C11.8908 41.8824 8.94118 44.832 8.94118 48.4706C8.94118 52.1092 11.8908 55.0588 15.5294 55.0588C19.168 55.0588 22.1176 52.1092 22.1176 48.4706Z" fill="black"/>
<path fill-rule="evenodd" clip-rule="evenodd" d="M36.9412 48.4706C36.9412 42.1031 42.1031 36.9412 48.4706 36.9412C54.8381 36.9412 60 42.1031 60 48.4706C60 54.8381 54.8381 60 48.4706 60C42.1031 60 36.9412 54.8381 36.9412 48.4706ZM55.0588 48.4706C55.0588 44.832 52.1092 41.8824 48.4706 41.8824C44.832 41.8824 41.8824 44.832 41.8824 48.4706C41.8824 52.1092 44.832 55.0588 48.4706 55.0588C52.1092 55.0588 55.0588 52.1092 55.0588 48.4706Z" fill="black"/>
</svg>
