<svg width="45" height="52" viewBox="0 0 45 52" fill="none" xmlns="http://www.w3.org/2000/svg">
<path fill-rule="evenodd" clip-rule="evenodd" d="M5.94417 29.3575H16.3725C19.66 29.2983 22.3758 31.9565 22.4471 35.3034V45.9209C22.4328 49.272 19.7682 51.9849 16.4768 51.9995H6.04846C2.76109 52.0438 0.0571376 49.3739 0 46.0271V35.4095C0 32.0671 2.6613 29.3575 5.94417 29.3575ZM16.3725 48.0179C17.51 48.0179 18.4321 47.079 18.4321 45.9209V35.3034C18.4322 34.7496 18.2144 34.2189 17.8274 33.8299C17.4403 33.4408 16.9164 33.2258 16.3725 33.2329H5.94417C5.40485 33.2329 4.88761 33.4511 4.50625 33.8393C4.12489 34.2276 3.91064 34.7542 3.91064 35.3034V45.9209C3.91055 47.0687 4.81688 48.0033 5.94417 48.0179H16.3725Z" fill="black"/>
<path d="M13.1658 38.6744V37.1614C13.1658 36.0619 12.2904 35.1706 11.2105 35.1706C10.1306 35.1706 9.25518 36.0619 9.25518 37.1614V38.6744H7.79521C6.71531 38.6744 5.83989 39.5657 5.83989 40.6652C5.83989 41.7647 6.71531 42.656 7.79521 42.656H9.28125V44.1956C9.28125 45.295 10.1567 46.1863 11.2366 46.1863C12.3165 46.1863 13.1919 45.295 13.1919 44.1956V42.656H14.704C15.7839 42.656 16.6593 41.7647 16.6593 40.6652C16.6593 39.5657 15.7839 38.6744 14.704 38.6744H13.1658Z" fill="black"/>
<path fill-rule="evenodd" clip-rule="evenodd" d="M26.1752 0.583965L44.4249 19.1647C44.8128 19.5669 45.0204 20.1144 44.9984 20.6777V39.2584C44.9984 46.2218 39.4541 51.8667 32.6147 51.8667H25.1324C24.0525 51.8667 23.1771 50.9754 23.1771 49.8759C23.1771 48.7765 24.0525 47.8852 25.1324 47.8852H32.6147C37.2943 47.8852 41.0878 44.0228 41.0878 39.2584V22.6685H30.0076C26.048 22.6685 22.8381 19.4003 22.8381 15.3689V4.06121H16.9722C12.2884 4.07584 8.4991 7.94578 8.49912 12.7145V25.9865C8.49912 27.0859 7.6237 27.9772 6.5438 27.9772C5.46391 27.9772 4.58848 27.0859 4.58848 25.9865V12.7145C4.56067 9.35222 5.85309 6.11789 8.1785 3.73036C10.5039 1.34282 13.6697 -0.000119216 16.9722 7.93765e-09H24.7935C25.3119 0.000464664 25.8089 0.210513 26.1752 0.583965ZM26.7488 6.79523V15.3689C26.7631 17.191 28.218 18.6604 30.0076 18.6603H38.4025L26.7488 6.79523Z" fill="black"/>
</svg>
