<svg width="57" height="56" viewBox="0 0 57 56" fill="none" xmlns="http://www.w3.org/2000/svg">
<path d="M37.4946 28.296C36.4157 28.296 35.5411 29.1706 35.5411 30.2495C35.5411 31.3284 36.4157 32.203 37.4946 32.203H44.5982C45.6771 32.203 46.5517 31.3284 46.5517 30.2495C46.5517 29.1706 45.6771 28.296 44.5982 28.296H37.4946Z" fill="black"/>
<path fill-rule="evenodd" clip-rule="evenodd" d="M47.9421 5.54132C48.1437 6.69768 48.1925 8.07187 48.2061 9.64409C48.4321 9.76195 48.6538 9.8874 48.8717 10.0209C50.8869 11.2559 52.5812 12.9502 53.8162 14.9654C55.1758 17.1842 55.6702 19.7557 55.8745 23.0241C56.0231 25.4018 56.0231 28.2938 56.0231 31.8459V31.9194C56.0231 33.9563 56.0231 35.7707 55.9963 37.3855C55.913 42.407 55.5878 45.9576 53.8162 48.8486C52.5812 50.8638 50.8869 52.5581 48.8717 53.793C46.9473 54.9723 44.7644 55.4979 42.0984 55.7513C39.4829 56 36.209 56 32.0328 56H24.0136C19.8374 56 16.5634 56 13.9479 55.7513C11.2819 55.4979 9.09893 54.9723 7.17456 53.793C5.15935 52.5581 3.46503 50.8638 2.23011 48.8486C1.05085 46.9242 0.525284 44.7412 0.2718 42.0753C0.0231112 39.4597 0.0231241 36.1858 0.0231407 32.0095L0.0233483 30.6402C-0.0109738 29.353 -0.000433421 27.9141 0.0109314 26.3626C0.0169217 25.5448 0.023141 24.6958 0.023141 23.8212L0.0231407 23.7082C0.0231202 19.2485 0.0231042 15.7483 0.311796 12.9703C0.606244 10.137 1.21854 7.82599 2.59947 5.84446C3.43379 4.64727 4.44599 3.59111 5.60067 2.71649C7.52372 1.25988 9.77407 0.612354 12.5184 0.30238C15.1958 -3.68329e-05 18.564 -1.55554e-05 22.8307 1.13028e-05L37.0731 3.85079e-06C39.153 -8.6507e-05 40.916 -0.000163089 42.3215 0.196837C43.8226 0.407251 45.2003 0.875336 46.3027 2.02455C47.2595 3.02207 47.7128 4.22548 47.9421 5.54132ZM36.9357 3.90699C39.1905 3.90699 40.6769 3.91149 41.7791 4.06599C42.8166 4.2114 43.2202 4.45497 43.4831 4.72907C43.7262 4.98258 43.9456 5.36528 44.0932 6.21226C44.1919 6.77857 44.2458 7.47075 44.2743 8.35622C43.1993 8.15945 42.039 8.0382 40.7752 7.96021C38.4049 7.81395 35.5244 7.81396 31.9905 7.81396H24.0136C19.8374 7.81395 16.5634 7.81393 13.9479 8.06262C11.2819 8.31611 9.09893 8.84168 7.17455 10.0209C6.13717 10.6566 5.18482 11.4141 4.3364 12.2744C4.62228 10.3799 5.09046 9.10338 5.80485 8.07829C6.40803 7.21276 7.1358 6.45494 7.95968 5.8309C9.09981 4.96731 10.5658 4.45474 12.9569 4.18467C15.3895 3.9099 18.5372 3.90699 22.9521 3.90699H36.9357ZM9.21595 13.3522C10.4233 12.6123 11.9377 12.1783 14.3177 11.9521C16.7268 11.723 19.8153 11.7209 24.1162 11.7209H31.9301C35.5366 11.7209 38.2982 11.7218 40.5346 11.8598C42.7688 11.9976 44.3308 12.2664 45.5621 12.734C46.0233 12.9092 46.4407 13.1134 46.8303 13.3522C48.3198 14.2649 49.5721 15.5173 50.4849 17.0068C51.1273 18.055 51.5365 19.3291 51.7818 21.1924H37.4946C32.4925 21.1924 28.4375 25.2474 28.4375 30.2495C28.4375 35.2516 32.4925 39.3066 37.4946 39.3066H52.0363C51.8858 43.1102 51.4707 45.1985 50.4849 46.8072C49.5721 48.2967 48.3198 49.549 46.8303 50.4618C45.623 51.2016 44.1086 51.6356 41.7286 51.8619C39.3195 52.091 36.231 52.093 31.9301 52.093H24.1162C19.8153 52.093 16.7268 52.091 14.3177 51.8619C11.9377 51.6356 10.4233 51.2016 9.21594 50.4618C7.72645 49.549 6.47412 48.2967 5.56136 46.8072C4.82151 45.5999 4.38753 44.0855 4.16123 41.7054C3.93218 39.2964 3.93012 36.2079 3.93012 31.907C3.93012 27.6061 3.93218 24.5176 4.16123 22.1085C4.38753 19.7285 4.82151 18.2141 5.56136 17.0068C6.47412 15.5173 7.72645 14.2649 9.21595 13.3522ZM32.3445 30.2495C32.3445 27.4052 34.6503 25.0994 37.4946 25.0994H52.0577C52.1157 26.985 52.1161 29.2096 52.1161 31.907C52.1161 33.1674 52.1161 34.3267 52.11 35.3996H37.4946C34.6503 35.3996 32.3445 33.0938 32.3445 30.2495Z" fill="black"/>
</svg>
