<svg width="51" height="56" viewBox="0 0 51 56" fill="none" xmlns="http://www.w3.org/2000/svg">
<path fill-rule="evenodd" clip-rule="evenodd" d="M26.1752 0.583965L44.4249 19.1647C44.8128 19.5669 45.0204 20.1144 44.9984 20.6777V39.2584C44.9984 46.2218 39.4541 51.8667 32.6147 51.8667H8.49912V49.9772V47.8852H32.6147C37.2943 47.8852 41.0878 44.0228 41.0878 39.2584V22.6685H30.0076C26.048 22.6685 22.8381 19.4003 22.8381 15.3689V4.06121H16.9722C12.2884 4.07584 8.4991 7.94578 8.49912 12.7145V51.8667L6.5438 51.8575C5.4654 51.8626 4.58848 50.9898 4.58848 49.9114V12.7145C4.56067 9.35222 5.85309 6.11789 8.1785 3.73036C10.5039 1.34282 13.6697 -0.000119216 16.9722 7.93765e-09H24.7935C25.3119 0.000464664 25.8089 0.210513 26.1752 0.583965ZM26.7488 6.79523V15.3689C26.7631 17.191 28.218 18.6604 30.0076 18.6603H38.4025L26.7488 6.79523Z" fill="black"/>
</svg>
