<svg width="55" height="52" viewBox="0 0 55 52" fill="none" xmlns="http://www.w3.org/2000/svg">
<path fill-rule="evenodd" clip-rule="evenodd" d="M19.8256 0C13.1147 0 7.67442 5.39442 7.67442 12.0488C7.67442 18.7031 13.1147 24.0976 19.8256 24.0976C26.5365 24.0976 31.9767 18.7031 31.9767 12.0488C31.9767 5.39442 26.5365 0 19.8256 0ZM11.5116 12.0488C11.5116 7.4958 15.2339 3.80488 19.8256 3.80488C24.4173 3.80488 28.1395 7.4958 28.1395 12.0488C28.1395 16.6018 24.4173 20.2927 19.8256 20.2927C15.2339 20.2927 11.5116 16.6018 11.5116 12.0488Z" fill="black"/>
<path d="M47.3256 17.122C47.3256 16.0713 46.4666 15.2195 45.407 15.2195C44.3474 15.2195 43.4884 16.0713 43.4884 17.122V22.8293H37.7326C36.6729 22.8293 35.814 23.681 35.814 24.7317C35.814 25.7824 36.6729 26.6341 37.7326 26.6341H43.4884V32.3415C43.4884 33.3922 44.3474 34.2439 45.407 34.2439C46.4666 34.2439 47.3256 33.3922 47.3256 32.3415V26.6341H53.0814C54.141 26.6341 55 25.7824 55 24.7317C55 23.681 54.141 22.8293 53.0814 22.8293H47.3256V17.122Z" fill="black"/>
<path fill-rule="evenodd" clip-rule="evenodd" d="M12.1512 27.9024C5.44026 27.9024 0 33.2969 0 39.9512C0 46.6056 5.44026 52 12.1512 52H27.5C34.2109 52 39.6512 46.6056 39.6512 39.9512C39.6512 33.2969 34.2109 27.9024 27.5 27.9024H12.1512ZM3.83721 39.9512C3.83721 35.3982 7.55949 31.7073 12.1512 31.7073H27.5C32.0917 31.7073 35.814 35.3982 35.814 39.9512C35.814 44.5042 32.0917 48.1951 27.5 48.1951H12.1512C7.55949 48.1951 3.83721 44.5042 3.83721 39.9512Z" fill="black"/>
</svg>
