<svg width="128" height="128" viewBox="0 0 128 128" fill="none" xmlns="http://www.w3.org/2000/svg">
<g clip-path="url(#clip0_1_2)">
<rect width="128" height="128" fill="#D71313"/>
<circle cx="19.5" cy="13.5" r="42.5" fill="#FFF7F1"/>
<circle cx="104" cy="24" r="31" fill="#FFF7F1"/>
<circle cx="14" cy="84" r="23" fill="#FFF7F1"/>
<circle cx="119.5" cy="84.5" r="29.5" fill="#FFF7F1"/>
<path d="M90 122.5C90 137.136 75.2968 147 63.5 147C51.7032 147 37 137.136 37 122.5C37 107.864 48.8645 96 63.5 96C78.1355 96 90 107.864 90 122.5Z" fill="#FFF7F1"/>
<circle cx="62.5" cy="63.5" r="35" fill="#FFF7F1" stroke="#D71313" stroke-width="3"/>
<path fill-rule="evenodd" clip-rule="evenodd" d="M63.5286 52.3118C59.3585 47.4367 52.4046 46.1253 47.1798 50.5895C41.955 55.0537 41.2194 62.5176 45.3225 67.7974C48.4216 71.7854 57.2258 79.7914 61.3487 83.4705C62.1066 84.1468 62.4856 84.485 62.9293 84.6181C63.3145 84.7336 63.7426 84.7336 64.1278 84.6181C64.5716 84.485 64.9505 84.1468 65.7084 83.4705C69.8313 79.7914 78.6355 71.7854 81.7347 67.7974C85.8378 62.5176 85.192 55.0067 79.8773 50.5895C74.5627 46.1722 67.6987 47.4367 63.5286 52.3118Z" fill="#FFF7F1"/>
<path d="M70.8429 65.5857H68.7571L65.6286 71.8429L61.4571 59.3286L58.3286 65.5857H56.2429" fill="#FFF7F1"/>
<path d="M70.8429 65.5857H68.7571L65.6286 71.8429L61.4571 59.3286L58.3286 65.5857H56.2429M63.5286 52.3118C59.3585 47.4367 52.4046 46.1253 47.1798 50.5895C41.955 55.0537 41.2194 62.5176 45.3225 67.7974C48.4216 71.7854 57.2258 79.7914 61.3487 83.4705C62.1066 84.1468 62.4856 84.485 62.9293 84.6181C63.3145 84.7336 63.7426 84.7336 64.1278 84.6181C64.5716 84.485 64.9505 84.1468 65.7084 83.4705C69.8313 79.7914 78.6355 71.7854 81.7347 67.7974C85.8378 62.5176 85.192 55.0067 79.8774 50.5895C74.5627 46.1722 67.6987 47.4367 63.5286 52.3118Z" stroke="#121212" stroke-width="2" stroke-linecap="round" stroke-linejoin="round"/>
<path d="M5.6 85.6875H9.2M2 80.9375L4.4 82.125L5.92477 77.5983C6.2395 76.664 6.39686 76.1968 6.68875 75.8514C6.9465 75.5464 7.2775 75.3103 7.65141 75.1648C8.07483 75 8.57246 75 9.56772 75H18.4323C19.4275 75 19.9252 75 20.3486 75.1648C20.7225 75.3103 21.0535 75.5464 21.3113 75.8514C21.6031 76.1968 21.7605 76.664 22.0752 77.5983L23.6 82.125L26 80.9375M18.8 85.6875H22.4M7.76 82.125H20.24C22.2562 82.125 23.2643 82.125 24.0344 82.5133C24.7118 82.8548 25.2625 83.3998 25.6076 84.0702C26 84.8322 26 85.8298 26 87.825V91.0312C26 91.583 26 91.8589 25.9539 92.0883C25.7645 93.0305 25.0203 93.767 24.0682 93.9544C23.8364 94 23.5576 94 23 94H22.4C21.0745 94 20 92.9367 20 91.625C20 91.2971 19.7314 91.0312 19.4 91.0312H8.6C8.26863 91.0312 8 91.2971 8 91.625C8 92.9367 6.92548 94 5.6 94H5C4.44241 94 4.16362 94 3.93178 93.9544C2.97973 93.767 2.23549 93.0305 2.04612 92.0883C2 91.8589 2 91.583 2 91.0312V87.825C2 85.8298 2 84.8322 2.39238 84.0702C2.73752 83.3998 3.28825 82.8548 3.96563 82.5133C4.73572 82.125 5.74381 82.125 7.76 82.125Z" stroke="#121212" stroke-width="2" stroke-linecap="round" stroke-linejoin="round"/>
<path d="M108 80.6L122.464 69.752C123.015 69.3389 123.29 69.1323 123.593 69.0527C123.86 68.9824 124.14 68.9824 124.407 69.0527C124.71 69.1323 124.985 69.3389 125.536 69.752L140 80.6M118.528 85.4V99C116.736 99 112.8 99 112.8 99H111.2V93.88V78.2L120.928 70.904C122.03 70.0778 122.58 69.6647 123.185 69.5054C123.719 69.3649 124.281 69.3649 124.815 69.5054C125.42 69.6647 125.97 70.0778 127.072 70.904L136.8 78.2V93.88V99H135.2 135.2 99C135.2 99 131.392 99 129.6 99V85.4H118.528Z" stroke="#121212" stroke-width="2" stroke-linecap="round" stroke-linejoin="round"/>
<path d="M96.8333 36H100.667M108.333 36H112.167M111.528 17.4722V27.6944M93 17.0889L93 28.0778C93 29.509 93 30.2246 93.2785 30.7713C93.5235 31.2522 93.9145 31.6431 94.3954 31.8881C94.942 32.1667 95.6576 32.1667 97.0889 32.1667L111.911 32.1667C113.342 32.1667 114.058 32.1667 114.605 31.8881C115.086 31.6431 115.476 31.2522 115.721 30.7713C116 30.2246 116 29.509 116 28.0778V17.0889C116 15.6576 116 14.942 115.721 14.3954C115.476 13.9145 115.086 13.5236 114.605 13.2785C114.058 13 113.342 13 111.911 13L97.0889 13C95.6576 13 94.942 13 94.3954 13.2785C93.9145 13.5235 93.5235 13.9145 93.2785 14.3954C93 14.942 93 15.6576 93 17.0889ZM103.861 22.5833C103.861 24.3476 102.431 25.7778 100.667 25.7778C98.9024 25.7778 97.4722 24.3476 97.4722 22.5833C97.4722 20.8191 98.9024 19.3889 100.667 19.3889C102.431 19.3889 103.861 20.8191 103.861 22.5833Z" stroke="#121212" stroke-width="2" stroke-linecap="round" stroke-linejoin="round"/>
<path d="M31.0104 28.0652L30.0881 27.6788L30.0881 27.6788L31.0104 28.0652ZM28.1924 32.2352L28.8955 32.9463L28.8955 32.9463L28.1924 32.2352ZM23.9749 35.0215L23.5959 34.0961L23.5959 34.0961L23.9749 35.0215ZM14.0251 35.0215L14.4041 34.0961L14.4041 34.0961L14.0251 35.0215ZM6.98957 28.0652L7.9119 27.6788L7.9119 27.6788L6.98957 28.0652ZM25.4131 8.52448L26.0391 9.30435L25.4131 8.52448ZM25.5859 8.52371L26.2117 7.74376L25.5859 8.52371ZM31.9527 24.2873L32.9052 24.5917L31.9527 24.2873ZM31.9455 24.3219L30.9498 24.2294L31.9455 24.3219ZM21.437 13.4327L20.5631 12.9467L21.437 13.4327ZM15.0145 3.03446L15.6678 3.79151L15.0145 3.03446ZM14.3611 2.27741C13.2989 3.19414 5 10.7377 5 23.1463H7C7 11.6383 14.7266 4.60381 15.6678 3.79151L14.3611 2.27741ZM22.1055 13.0911C20.0241 6.80031 16.5878 3.0316 15.9303 2.34885L14.4897 3.7362C15.0266 4.29364 18.2521 7.81154 20.2068 13.7193L22.1055 13.0911ZM22.311 13.9186C23.8576 11.1375 25.676 9.59575 26.0391 9.30435L24.7872 7.74461C24.2966 8.13835 22.2746 9.86876 20.5631 12.9467L22.311 13.9186ZM24.96 9.30366C25.6317 9.84264 31 14.4252 31 23.0383H33C33 13.5312 27.0741 8.43578 26.2117 7.74376L24.96 9.30366ZM31 23.0383V23.1463H33V23.0383H31ZM31 23.1463V23.9825H33V23.1463H31ZM31 23.9825L31.0002 23.9829L32.9052 24.5917C32.967 24.3984 33 24.1934 33 23.9825H31ZM30.9498 24.2294C30.8398 25.4132 30.55 26.5762 30.0881 27.6788L31.9328 28.4516C32.4732 27.1617 32.8125 25.8004 32.9412 24.4144L30.9498 24.2294ZM30.0881 27.6788C29.486 29.1161 28.6031 30.4229 27.4893 31.5241L28.8955 32.9463C30.196 31.6604 31.2283 30.1332 31.9328 28.4516L30.0881 27.6788ZM27.4893 31.5241C26.3755 32.6254 25.0526 33.4995 23.5959 34.0961L24.3539 35.9469C26.0516 35.2516 27.595 34.2322 28.8955 32.9463L27.4893 31.5241ZM23.5959 34.0961C22.1391 34.6927 20.5774 35 19 35V37C20.8369 37 22.6562 36.6422 24.3539 35.9469L23.5959 34.0961ZM19 35C17.4226 35 15.8609 34.6927 14.4041 34.0961L13.6461 35.9469C15.3438 36.6422 17.1631 37 19 37V35ZM14.4041 34.0961C12.9474 33.4995 11.6245 32.6254 10.5107 31.5241L9.10452 32.9463C10.405 34.2322 11.9484 35.2516 13.6461 35.9469L14.4041 34.0961ZM10.5107 31.5241C9.39693 30.4229 8.51404 29.1161 7.9119 27.6788L6.06723 28.4516C6.77171 30.1332 7.80397 31.6604 9.10452 32.9463L10.5107 31.5241ZM7.9119 27.6788C7.30976 26.2415 7 24.7014 7 23.1463H5C5 24.9672 5.36274 26.7699 6.06723 28.4516L7.9119 27.6788ZM26.0391 9.30435C25.7337 9.54943 25.2822 9.56217 24.96 9.30366L26.2117 7.74376C25.7858 7.40199 25.1963 7.41626 24.7872 7.74461L26.0391 9.30435ZM31.0002 23.9829C30.9772 24.0549 30.9583 24.1376 30.9498 24.2294L32.9412 24.4144C32.9349 24.4827 32.9211 24.5422 32.9052 24.5917L31.0002 23.9829ZM20.2068 13.7193C20.5175 14.6586 21.8162 14.8085 22.311 13.9186L20.5631 12.9467C20.9288 12.289 21.8782 12.4039 22.1055 13.0911L20.2068 13.7193ZM15.6678 3.79151C15.3331 4.08037 14.8138 4.07268 14.4897 3.7362L15.9303 2.34885C15.5002 1.90229 14.8115 1.8887 14.3611 2.27741L15.6678 3.79151Z" fill="#222222"/>
<path d="M18.4574 18.0314L17.8552 17.233L17.8552 17.233L18.4574 18.0314ZM11.5995 28.0117L12.5957 28.0992L12.5958 28.0982L11.5995 28.0117ZM19.5428 18.0314L20.1451 17.2331L20.1451 17.2331L19.5428 18.0314ZM26.4007 28.0143L25.4044 28.1004L25.4045 28.1014L26.4007 28.0143ZM17.8552 17.233C17.0039 17.8752 15.3264 19.2382 13.8004 21.0679C12.2868 22.8826 10.8346 25.2604 10.6033 27.9253L12.5958 28.0982C12.7757 26.0255 13.9333 24.031 15.3363 22.3489C16.7267 20.6817 18.2726 19.4233 19.0596 18.8297L17.8552 17.233ZM20.1451 17.2331C19.4633 16.7188 18.5369 16.7188 17.8552 17.233L19.0596 18.8297C19.0488 18.8379 19.0274 18.8474 19.0001 18.8474C18.9728 18.8474 18.9515 18.8379 18.9406 18.8297L20.1451 17.2331ZM27.397 27.9282C27.1665 25.2626 25.7144 22.8841 24.2006 21.0689C22.6743 19.2387 20.9965 17.8753 20.1451 17.2331L18.9406 18.8297C19.7277 19.4235 21.274 20.6822 22.6646 22.3498C24.0677 24.0323 25.2252 26.0273 25.4044 28.1004L27.397 27.9282ZM25.4045 28.1014C25.4204 28.2836 25.4286 28.4683 25.4286 28.6551H27.4286C27.4286 28.4101 27.4179 28.1673 27.3969 27.9272L25.4045 28.1014ZM25.4286 28.6551C25.4286 32.1487 22.5611 35 19 35V37C23.6443 37 27.4286 33.2745 27.4286 28.6551H25.4286ZM19 35C15.4389 35 12.5714 32.1487 12.5714 28.6551H10.5714C10.5714 33.2745 14.3557 37 19 37V35ZM12.5714 28.6551C12.5714 28.4675 12.5796 28.2821 12.5957 28.0992L10.6034 27.9243C10.5822 28.1654 10.5714 28.4091 10.5714 28.6551H12.5714Z" fill="#222222"/>
<path d="M54 117.486C54 116.382 54.8954 115.486 56 115.486H71C72.1046 115.486 73 116.382 73 117.486V131.802C73 132.907 72.1046 133.802 71 133.802H56C54.8954 133.802 54 132.907 54 131.802V117.486Z" stroke="#222222" stroke-width="2" stroke-linecap="round" stroke-linejoin="round"/>
<path d="M58.75 115.486V111.381C58.75 110.276 59.6454 109.381 60.75 109.381H66.25C67.3546 109.381 68.25 110.276 68.25 111.381V115.486" stroke="#222222" stroke-width="2" stroke-linecap="round" stroke-linejoin="round"/>
<path d="M60.3333 121.591H66.6667" stroke="#222222" stroke-width="2" stroke-linecap="round" stroke-linejoin="round"/>
</g>
<defs>
<clipPath id="clip0_1_2">
<rect width="128" height="128" fill="white"/>
</clipPath>
</defs>
</svg>
